<?xml version="1.0" encoding="UTF-8"?>
<!-- Created by JSCAD SVG Serializer -->
<!DOCTYPE svg PUBLIC "-//W3C//DTD SVG 1.1 Tiny//EN" "http://www.w3.org/Graphics/SVG/1.1/DTD/svg11-tiny.dtd">
<svg width="838.0044mm" height="838.0044mm" viewBox="0 0 838.0044 838.0044" fill="none" fill-rule="evenodd" stroke-width="0.1px" version="1.1" baseProfile="tiny" xmlns="http://www.w3.org/2000/svg" xmlns:xlink="http://www.w3.org/1999/xlink">
  <g>
    <path fill="black" d="M838.0044 419.0022L837.7471 404.3812L836.9808 389.777L835.7055 375.2064L833.9268 360.6861L831.6392 346.2441L828.8481 331.886L825.5536 317.6342L821.7725 303.511L817.4936 289.5221L812.7337 275.6954L807.4928 262.0421L801.7764 248.5789L795.5957 235.3227L788.9564 222.2958L781.8641 209.5039L774.3355 196.9636L766.3706 184.7031L757.9806 172.7221L749.1767 161.0377L739.9756 149.672L730.3775 138.6364L720.4046 127.9419L710.0625 117.5998L699.368 107.6269L688.3324 98.0288L676.9667 88.8277L665.2823 80.0238L653.3013 71.6338L641.0407 63.6689L628.5005 56.1403L615.7085 49.0479L602.6817 42.4087L589.4255 36.228L575.9623 30.5116L562.309 25.2707L548.4823 20.5108L534.4933 16.2319L520.3702 12.4508L506.1184 9.1563L491.7603 6.3652L477.3183 4.0775L462.798 2.2989L448.2274 1.0236L433.6232 0.2573L419.0022 0L404.3812 0.2573L389.777 1.0236L375.2064 2.2989L360.6861 4.0775L346.2441 6.3652L331.886 9.1563L317.6342 12.4508L303.511 16.2319L289.5221 20.5108L275.6954 25.2707L262.0421 30.5116L248.5789 36.228L235.3227 42.4087L222.2958 49.0479L209.5039 56.1403L196.9636 63.6689L184.7031 71.6338L172.7221 80.0238L161.0377 88.8277L149.672 98.0288L138.6364 107.6269L127.9419 117.5998L117.5998 127.9419L107.6269 138.6364L98.0288 149.672L88.8277 161.0377L80.0238 172.7221L71.6338 184.7031L63.6689 196.9636L56.1403 209.5039L49.0479 222.2958L42.4087 235.3227L36.228 248.5789L30.5116 262.0421L25.2707 275.6954L20.5108 289.5221L16.2319 303.511L12.4508 317.6342L9.1563 331.886L6.3652 346.2441L4.0775 360.6861L2.2989 375.2064L1.0236 389.777L0.2573 404.3812L0 419.0022L0.2573 433.6232L1.0236 448.2274L2.2989 462.798L4.0775 477.3183L6.3652 491.7603L9.1563 506.1184L12.4508 520.3702L16.2319 534.4933L20.5108 548.4823L25.2707 562.309L30.5116 575.9623L36.228 589.4255L42.4087 602.6817L49.0479 615.7085L56.1403 628.5005L63.6689 641.0407L71.6338 653.3013L80.0238 665.2823L88.8277 676.9667L98.0288 688.3324L107.6269 699.368L117.5998 710.0625L127.9419 720.4046L138.6364 730.3775L149.672 739.9756L161.0377 749.1767L172.7221 757.9806L184.7031 766.3706L196.9636 774.3355L209.5039 781.8641L222.2958 788.9564L235.3227 795.5957L248.5789 801.7764L262.0421 807.4928L275.6954 812.7337L289.5221 817.4936L303.511 821.7725L317.6342 825.5536L331.886 828.8481L346.2441 831.6392L360.6861 833.9268L375.2064 835.7055L389.777 836.9808L404.3812 837.7471L419.0022 838.0044L433.6232 837.7471L448.2274 836.9808L462.798 835.7055L477.3183 833.9268L491.7603 831.6392L506.1184 828.8481L520.3702 825.5536L534.4933 821.7725L548.4823 817.4936L562.309 812.7337L575.9623 807.4928L589.4255 801.7764L602.6817 795.5957L615.7085 788.9564L628.5005 781.8641L641.0407 774.3355L653.3013 766.3706L665.2823 757.9806L676.9667 749.1767L688.3324 739.9756L699.368 730.3775L710.0625 720.4046L720.4046 710.0625L730.3775 699.368L739.9756 688.3324L749.1767 676.9667L757.9806 665.2823L766.3706 653.3013L774.3355 641.0407L781.8641 628.5005L788.9564 615.7085L795.5957 602.6817L801.7764 589.4255L807.4928 575.9623L812.7337 562.309L817.4936 548.4823L821.7725 534.4933L825.5536 520.3702L828.8481 506.1184L831.6392 491.7603L833.9268 477.3183L835.7055 462.798L836.9808 448.2274L837.7471 433.6232L838.0044 419.0022M40.9656 411.591L40.9656 372.1357L41.8046 365.9159L43.835 352.9617L46.3743 339.7558L49.4227 326.8017L52.7284 314.0992L55.7935 303.6733L55.7935 411.591L40.9656 411.591M70.6158 411.591L70.6158 264.9674L71.0186 264.0557L76.6007 251.8678L82.6974 240.1833L85.4438 235.1325L85.4438 411.591L70.6158 411.591M100.2661 411.591L100.2661 210.2198L103.0236 205.8906L110.8934 194.9724L115.094 189.4182L115.094 411.591L100.2661 411.591M129.9108 411.591L129.9108 170.8875L135.7894 163.9798L144.7387 154.5326L144.7387 411.591L129.9108 411.591M159.561 411.591L159.561 139.9732L163.9798 135.7894L174.1428 127.1532L174.3889 126.9463L174.3889 411.591L159.561 411.591M189.2113 411.591L189.2113 115.245L194.9724 110.8934L204.0392 104.3548L204.0392 411.591L189.2113 411.591M218.8615 411.591L218.8615 94.8294L228.4989 89.0459L233.6895 86.2268L233.6895 411.591L218.8615 411.591M248.523 411.591L248.523 78.3458L251.8678 76.6007L263.3397 71.343L263.3397 411.591L248.523 411.591M278.1677 411.591L278.1677 64.9386L288.6943 60.8555L292.99 59.362L292.99 411.591L278.1677 411.591M307.8179 411.591L307.8179 54.5742L314.0992 52.7284L322.6402 50.5078L322.6402 411.591L307.8179 411.591M515.3641 411.591L515.3641 50.5078L523.9052 52.7284L530.1865 54.5742L530.1865 411.591L515.3641 411.591M545.0144 411.591L545.0144 59.362L549.3101 60.8555L559.8367 64.9386L559.8367 411.591L545.0144 411.591M574.6647 411.591L574.6647 71.343L586.1366 76.6007L589.4814 78.3458L589.4814 411.591L574.6647 411.591M604.3149 411.591L604.3149 86.2268L609.5055 89.0459L619.1428 94.8294L619.1428 411.591L604.3149 411.591M633.9652 411.591L633.9652 104.3548L643.032 110.8934L648.7931 115.245L648.7931 411.591L633.9652 411.591M663.6154 411.591L663.6154 126.9463L663.8615 127.1532L674.0246 135.7894L678.4434 139.9732L678.4434 411.591L663.6154 411.591M693.2657 411.591L693.2657 154.5326L702.215 163.9798L708.0936 170.8875L708.0936 411.591L693.2657 411.591M722.9104 411.591L722.9104 189.4182L727.111 194.9724L734.9808 205.8906L737.7383 210.2198L737.7383 411.591L722.9104 411.591M752.5606 411.591L752.5606 235.1325L755.307 240.1833L761.4037 251.8678L766.9858 264.0557L767.3886 264.9674L767.3886 411.591L752.5606 411.591M782.2109 411.591L782.2109 303.6733L785.276 314.0992L788.5817 326.8017L791.6301 339.7558L794.1694 352.9617L796.1998 365.9159L797.0388 372.1357L797.0388 411.591L782.2109 411.591M426.4078 547.7048L513.8316 787.8993L511.2027 788.5817L499.3225 791.3784L426.4078 591.0363L426.4078 547.7048M426.4078 634.3959L484.584 794.2421L472.0885 796.1998L469.6386 796.5298L426.4078 677.7498L426.4078 634.3959M426.4078 721.0925L454.5087 798.3141L445.6712 798.9965L439.1214 799.3656L426.4078 764.4409L426.4078 721.0925M792.4355 426.4078L799.0524 444.5861L798.9965 445.6712L797.9785 458.8827L796.1998 472.0885L795.3217 477.6763L776.6623 426.4078L792.4355 426.4078M760.8947 426.4078L789.829 505.9058L788.5817 511.2027L785.276 523.9052L783.1841 531.0143L745.1159 426.4078L760.8947 426.4078M729.3371 426.4078L775.5604 553.3988L772.3275 561.7552L767.1424 573.6075L713.5583 426.4078L729.3371 426.4078M697.7851 426.4078L758.1707 592.3284L755.307 597.8211L748.9585 609.5055L748.7628 609.8244L682.0063 426.4078L697.7851 426.4078M666.2275 426.4078L738.8793 626.0003L734.9808 632.1138L728.5652 641.0184L650.4543 426.4078L666.2275 426.4078M634.6811 426.4078L717.9155 655.0912L710.8511 663.8615L706.9917 668.4145L618.9023 426.4078L634.6811 426.4078M603.1291 426.4078L695.7435 680.8597L693.0755 683.6787L684.2101 692.5386L587.3447 426.4078L603.1291 426.4078M571.5771 426.4078L672.4473 703.5574L663.8615 710.8511L660.3545 713.6758L555.7983 426.4078L571.5771 426.4078M540.0196 426.4078L648.0772 723.2963L643.032 727.111L635.632 732.447L524.2464 426.4078L540.0196 426.4078M313.758 426.4078L202.3724 732.447L194.9724 727.111L189.9272 723.2963L297.9848 426.4078L313.758 426.4078M282.206 426.4078L177.6499 713.6758L174.1428 710.8511L165.5571 703.5574L266.4272 426.4078L282.206 426.4078M250.6596 426.4078L153.7943 692.5386L144.9289 683.6787L142.2608 680.8597L234.8753 426.4078L250.6596 426.4078M219.1021 426.4078L131.0126 668.4145L127.1532 663.8615L120.0889 655.0912L203.3233 426.4078L219.1021 426.4078M187.5501 426.4078L109.4392 641.0184L103.0236 632.1138L99.1251 626.0003L171.7769 426.4078L187.5501 426.4078M155.9981 426.4078L89.2416 609.8244L89.0459 609.5055L82.6974 597.8211L79.8336 592.3284L140.2193 426.4078L155.9981 426.4078M124.4461 426.4078L70.8619 573.6075L65.6769 561.7552L62.444 553.3988L108.6673 426.4078L124.4461 426.4078M92.8885 426.4078L54.8203 531.0143L52.7284 523.9052L49.4227 511.2027L48.1754 505.9058L77.1097 426.4078L92.8885 426.4078M61.3421 426.4078L42.6827 477.6763L41.8046 472.0885L40.0259 458.8827L39.0079 445.6712L38.952 444.5861L45.5689 426.4078L61.3421 426.4078M411.5966 764.4409L398.883 799.3656L392.3332 798.9965L383.4957 798.3141L411.5966 721.0925L411.5966 764.4409M411.5966 677.7498L368.3657 796.5298L365.9159 796.1998L353.4204 794.2421L411.5966 634.3959L411.5966 677.7498M411.5966 591.0363L338.6819 791.3784L326.8017 788.5817L324.1728 787.8993L411.5966 547.7048L411.5966 591.0363M498.5058 376.8341L496.9844 374.043L495.2058 371.2519L493.6788 368.7069L491.9057 366.1676L487.8393 361.0888L485.7139 358.7005L485.7139 43.9692L498.2485 46.3743L500.5362 46.9113L500.5362 381.0235L499.7755 379.6307L498.5058 376.8341M466.7525 342.7986L463.9614 341.0199L461.1703 339.4986L458.3737 338.2289L456.0636 336.9704L456.0636 39.8078L458.8827 40.0259L470.886 41.6424L470.886 345.4387L469.2974 344.3256L466.7525 342.7986M437.8014 331.1141L434.4957 330.3535L431.4474 329.8445L426.4134 329.425L426.4134 38.1353L432.2081 38.2472L441.2357 38.7562L441.2357 331.7574L440.8442 331.6231L437.8014 331.1141M406.557 329.8445L403.5087 330.3535L400.203 331.1141L397.1602 331.6231L396.7687 331.7574L396.7687 38.7562L405.7963 38.2472L411.591 38.1353L411.591 329.425L406.557 329.8445M376.8341 339.4986L374.043 341.0199L371.2519 342.7986L368.7069 344.3256L367.1184 345.4387L367.1184 41.6424L379.1217 40.0259L381.9408 39.8078L381.9408 336.9704L379.6307 338.2289L376.8341 339.4986M350.165 361.0888L346.0987 366.1676L344.3256 368.7069L342.7986 371.2519L341.0199 374.043L339.4986 376.8341L338.2289 379.6307L337.4682 381.0235L337.4682 46.9113L339.7558 46.3743L352.2905 43.9692L352.2905 358.7005L350.165 361.0888M329.8445 431.4474L330.3535 434.4957L331.1141 437.8014L331.6231 440.8442L332.6411 443.8925L333.4018 446.6836L334.4142 449.7376L335.6895 452.7859L335.6951 452.8083L228.0178 748.6677L217.0661 742.0955L215.086 740.837L329.4473 426.6427L329.8445 431.4474M350.165 476.9156L354.2314 481.4909L356.1275 483.3871L254.5023 762.6118L251.8678 761.4037L241.1901 755.8327L345.0863 470.3826L346.0987 471.8368L350.165 476.9156M371.2519 495.2058L374.043 496.9844L376.8341 498.5058L379.6307 499.7755L381.3702 500.7264L281.7418 774.4529L276.2491 772.3275L268.0493 768.7365L368.2763 493.3767L368.7069 493.6788L371.2519 495.2058M400.203 506.8902L403.5087 507.6509L406.557 508.1599L410.1032 508.4508L309.8147 784.0175L301.1395 781.4726L295.658 779.5652L395.3088 505.766L397.1602 506.3812L400.203 506.8902M431.4474 508.1599L434.4957 507.6509L437.8014 506.8902L440.8442 506.3812L442.6956 505.766L542.3464 779.5652L536.8649 781.4726L528.1897 784.0175L427.9012 508.4508L431.4474 508.1599M461.1703 498.5058L463.9614 496.9844L466.7525 495.2058L469.2974 493.6788L469.7281 493.3767L569.9551 768.7365L561.7552 772.3275L556.2626 774.4529L456.6341 500.7264L458.3737 499.7755L461.1703 498.5058M487.8393 476.9156L491.9057 471.8368L492.9181 470.3826L596.8143 755.8327L586.1366 761.4037L583.5021 762.6118L481.8769 483.3871L483.773 481.4909L487.8393 476.9156M503.5902 449.7376L504.6026 446.6836L505.3633 443.8925L506.3812 440.8442L506.8902 437.8014L507.6509 434.4957L508.1599 431.4474L508.5571 426.6427L622.9183 740.837L620.9383 742.0955L609.9866 748.6677L502.3093 452.8083L502.3149 452.7859L503.5902 449.7376M501.5039 421.8828L501.3472 424.7577L501.1011 427.6271L500.7488 430.4909L500.2957 433.3379L499.7476 436.1625L499.0987 438.9704L498.3548 441.7559L497.5102 444.5134L496.5761 447.2373L495.5414 449.9277L494.4171 452.579L493.1978 455.1911L491.8889 457.7584L490.4906 460.281L489.0084 462.7477L487.4422 465.164L485.7866 467.5244L484.0527 469.8232L482.2404 472.0661L480.3443 474.2364L478.381 476.345L476.345 478.381L474.2364 480.3443L472.0661 482.2404L469.8232 484.0527L467.5244 485.7866L465.164 487.4422L462.7477 489.0084L460.281 490.4906L457.7584 491.8889L455.1911 493.1978L452.579 494.4171L449.9277 495.5414L447.2373 496.5761L444.5134 497.5102L441.7559 498.3548L438.9704 499.0987L436.1625 499.7476L433.3379 500.2957L430.4909 500.7488L427.6271 501.1011L424.7577 501.3472L421.8828 501.5039L419.0022 501.5542L416.1216 501.5039L413.2467 501.3472L410.3773 501.1011L407.5135 500.7488L404.6665 500.2957L401.8418 499.7476L399.034 499.0987L396.2485 498.3548L393.491 497.5102L390.767 496.5761L388.0767 495.5414L385.4254 494.4171L382.8133 493.1978L380.246 491.8889L377.7234 490.4906L375.2567 489.0084L372.8404 487.4422L370.48 485.7866L368.1812 484.0527L365.9382 482.2404L363.768 480.3443L361.6593 478.381L359.6234 476.345L357.6601 474.2364L355.764 472.0661L353.9517 469.8232L352.2178 467.5244L350.5622 465.164L348.996 462.7477L347.5138 460.281L346.1155 457.7584L344.8066 455.1911L343.5873 452.579L342.463 449.9277L341.4283 447.2373L340.4942 444.5134L339.6496 441.7559L338.9057 438.9704L338.2568 436.1625L337.7087 433.3379L337.2556 430.4909L336.9032 427.6271L336.6571 424.7577L336.5005 421.8828L336.4502 419.0022L336.5005 416.1216L336.6571 413.2467L336.9032 410.3773L337.2556 407.5135L337.7087 404.6665L338.2568 401.8418L338.9057 399.034L339.6496 396.2485L340.4942 393.491L341.4283 390.767L342.463 388.0767L343.5873 385.4254L344.8066 382.8133L346.1155 380.246L347.5138 377.7234L348.996 375.2567L350.5622 372.8404L352.2178 370.48L353.9517 368.1812L355.764 365.9382L357.6601 363.768L359.6234 361.6593L361.6593 359.6234L363.768 357.6601L365.9382 355.764L368.1812 353.9517L370.48 352.2178L372.8404 350.5622L375.2567 348.996L377.7234 347.5138L380.246 346.1155L382.8133 344.8066L385.4254 343.5873L388.0767 342.463L390.767 341.4283L393.491 340.4942L396.2485 339.6496L399.034 338.9057L401.8418 338.2568L404.6665 337.7087L407.5135 337.2556L410.3773 336.9032L413.2467 336.6571L416.1216 336.5005L419.0022 336.4502L421.8828 336.5005L424.7577 336.6571L427.6271 336.9032L430.4909 337.2556L433.3379 337.7087L436.1625 338.2568L438.9704 338.9057L441.7559 339.6496L444.5134 340.4942L447.2373 341.4283L449.9277 342.463L452.579 343.5873L455.1911 344.8066L457.7584 346.1155L460.281 347.5138L462.7477 348.996L465.164 350.5622L467.5244 352.2178L469.8232 353.9517L472.0661 355.764L474.2364 357.6601L476.345 359.6234L478.381 361.6593L480.3443 363.768L482.2404 365.9382L484.0527 368.1812L485.7866 370.48L487.4422 372.8404L489.0084 375.2567L490.4906 377.7234L491.8889 380.246L493.1978 382.8133L494.4171 385.4254L495.5414 388.0767L496.5761 390.767L497.5102 393.491L498.3548 396.2485L499.0987 399.034L499.7476 401.8418L500.2957 404.6665L500.7488 407.5135L501.1011 410.3773L501.3472 413.2467L501.5039 416.1216L501.5542 419.0022L501.5039 421.8828"/>
  </g>
</svg>
